<svg width="84" height="30" viewBox="0 0 84 30" fill="none" xmlns="http://www.w3.org/2000/svg">
    <path
        d="M0 6.47577C0 6.21301 0.216038 6 0.482533 6H13.4305C13.697 6 13.913 6.21301 13.913 6.47577V7.98238C13.913 9.73412 12.4728 11.1542 10.6962 11.1542H1.0857C0.486085 11.1542 0 10.6749 0 10.0837V6.47577Z"
        fill="var(--fill-secondary, #BCBBF6)" />
    <path
        d="M0 14.5242C0 14.2615 0.216038 14.0485 0.482533 14.0485H11.5406C11.8071 14.0485 12.0231 14.2615 12.0231 14.5242V16.0308C12.0231 17.7826 10.5829 19.2026 8.80623 19.2026H1.0857C0.486084 19.2026 0 18.7234 0 18.1322V14.5242Z"
        fill="var(--fill-secondary, #BCBBF6)" />
    <path
        d="M0 8.57709H6.03167V20.8282C6.03167 22.5799 4.59142 24 2.81478 24H0.482533C0.216037 24 0 23.787 0 23.5242V8.57709Z"
        fill="var(--fill-secondary, #BCBBF6)" />
    <path
        d="M2.08691 6.47577C2.08691 6.21301 2.30295 6 2.56945 6H15.5174C15.7839 6 16 6.21301 16 6.47577V7.98238C16 9.73412 14.5597 11.1542 12.7831 11.1542H3.17261C2.573 11.1542 2.08691 10.6749 2.08691 10.0837V6.47577Z"
        fill="var(--text-accent, #5653FE)" />
    <path
        d="M2.08691 14.5242C2.08691 14.2615 2.30295 14.0485 2.56945 14.0485H13.6275C13.894 14.0485 14.11 14.2615 14.11 14.5242V16.0308C14.11 17.7826 12.6698 19.2026 10.8931 19.2026H3.17261C2.573 19.2026 2.08691 18.7234 2.08691 18.1322V14.5242Z"
        fill="var(--text-accent, #5653FE)" />
    <path
        d="M2.08691 8.57709H8.11858V20.8282C8.11858 22.5799 6.67833 24 4.90169 24H2.56945C2.30295 24 2.08691 23.787 2.08691 23.5242V8.57709Z"
        fill="var(--text-accent, #5653FE)" />
    <path d="M24 23.7565V7.78581H34.442V10.5417H27.337V14.8249H33.8232V17.4701H27.337V23.7565H24Z"
        fill="var(--text-accent, #5653FE)" />
    <path
        d="M37.8232 10.3646C36.8508 10.3646 36.0994 9.60091 36.0994 8.68229C36.0994 7.76367 36.8508 7 37.8232 7C38.7956 7 39.547 7.76367 39.547 8.68229C39.547 9.60091 38.7956 10.3646 37.8232 10.3646ZM36.2099 23.7565V11.8919H39.4365V23.7565H36.2099Z"
        fill="var(--text-accent, #5653FE)" />
    <path
        d="M41.6022 23.7565V11.8919H44.8287V13.8398H44.895C45.5028 12.4785 46.7182 11.6484 48.5083 11.6484C51.116 11.6484 52.5967 13.3197 52.5967 16.0977V23.7565H49.3702V16.7617C49.3702 15.2122 48.6409 14.3268 47.1934 14.3268C45.7459 14.3268 44.8287 15.3893 44.8287 16.9388V23.7565H41.6022Z"
        fill="var(--text-accent, #5653FE)" />
    <path
        d="M60.0331 24C56.4088 24 54.2099 21.6426 54.2099 17.8464V17.8353C54.2099 14.0612 56.4309 11.6484 59.9006 11.6484C63.3702 11.6484 65.547 14.0059 65.547 17.5918V18.5879H57.3923C57.4254 20.4805 58.453 21.5872 60.0994 21.5872C61.4254 21.5872 62.232 20.8568 62.4641 20.1927L62.4862 20.1263H65.4475L65.4144 20.248C65.0497 21.9967 63.4144 24 60.0331 24ZM59.9558 14.0612C58.6298 14.0612 57.6354 14.9466 57.4254 16.5514H62.453C62.2541 14.9134 61.2928 14.0612 59.9558 14.0612Z"
        fill="var(--text-accent, #5653FE)" />
    <path d="M67.2928 23.7565V7.78581H70.5193V23.7565H67.2928Z" fill="var(--text-accent, #5653FE)" />
    <path
        d="M78.1326 24C74.5304 24 72.2652 21.6868 72.2652 17.8242V17.8021C72.2652 13.9837 74.5856 11.6484 78.1215 11.6484C81.6685 11.6484 84 13.9616 84 17.8021V17.8242C84 21.6979 81.7127 24 78.1326 24ZM78.1437 21.4655C79.7127 21.4655 80.7182 20.1374 80.7182 17.8242V17.8021C80.7182 15.5111 79.6906 14.1829 78.1215 14.1829C76.5635 14.1829 75.547 15.5111 75.547 17.8021V17.8242C75.547 20.1484 76.5525 21.4655 78.1437 21.4655Z"
        fill="var(--text-accent, #5653FE)" />
</svg>